<?xml version="1.0" encoding="UTF-8"?>
<!DOCTYPE svg PUBLIC "-//W3C//DTD SVG 1.1//EN" "http://www.w3.org/Graphics/SVG/1.1/DTD/svg11.dtd">
<svg xmlns="http://www.w3.org/2000/svg" version="1.1" width="1452px" height="1886px" style="shape-rendering:geometricPrecision; text-rendering:geometricPrecision; image-rendering:optimizeQuality; fill-rule:evenodd; clip-rule:evenodd" xmlns:xlink="http://www.w3.org/1999/xlink">
<g><path style="opacity:0.977" fill="#fefffe" d="M 682.5,-0.5 C 711.167,-0.5 739.833,-0.5 768.5,-0.5C 921.9,7.72328 1059.57,57.8899 1181.5,150C 1283.6,228.972 1351.1,331.139 1384,456.5C 1414.2,594.955 1394.53,725.622 1325,848.5C 1303.01,884.18 1276.84,916.68 1246.5,946C 1210.81,975.843 1170.15,996.177 1124.5,1007C 1071.54,1019.58 1018.88,1019.58 966.5,1007C 937.082,997.228 907.415,988.228 877.5,980C 874.5,979.333 871.5,979.333 868.5,980C 866.667,980.5 865.5,981.667 865,983.5C 863.324,1006.57 855.991,1027.57 843,1046.5C 831.225,1061.27 816.391,1071.77 798.5,1078C 736.8,1101.46 674.466,1106.13 611.5,1092C 596.441,1088.6 584.275,1080.77 575,1068.5C 557.898,1044.77 552.898,1018.77 560,990.5C 563.519,982.798 567.019,975.131 570.5,967.5C 566.838,960.981 563.338,954.315 560,947.5C 555.331,933.487 556.331,919.82 563,906.5C 573.639,889.194 587.639,875.194 605,864.5C 605.667,862.5 605.667,860.5 605,858.5C 557.483,812.668 517.149,761.335 484,704.5C 471.481,681.461 461.148,657.461 453,632.5C 441.566,594.981 439.566,556.981 447,518.5C 455.205,489.633 470.705,465.466 493.5,446C 535.975,410.298 584.308,398.298 638.5,410C 677.54,419.742 710.54,439.409 737.5,469C 741.615,472.909 745.948,473.242 750.5,470C 775.124,444.681 804.458,427.014 838.5,417C 893.119,407.325 943.785,417.325 990.5,447C 1038.9,482.468 1060.07,530.301 1054,590.5C 1051.12,616.488 1043.78,641.155 1032,664.5C 1002.99,717.522 965.154,763.355 918.5,802C 892.553,823.304 865.886,843.637 838.5,863C 852.15,871.649 862.65,883.149 870,897.5C 871.285,904.26 872.952,910.926 875,917.5C 876.765,920.473 879.265,922.64 882.5,924C 913.101,930.15 943.101,938.484 972.5,949C 1022.17,964.318 1071.84,964.318 1121.5,949C 1146.63,941.745 1170.29,931.412 1192.5,918C 1209.96,904.203 1225.8,888.703 1240,871.5C 1266.14,839.569 1287.48,804.569 1304,766.5C 1355.87,636.299 1353.87,506.966 1298,378.5C 1269.49,318.985 1230.66,267.151 1181.5,223C 1105.15,155.641 1017.48,108.308 918.5,81C 839.578,59.6455 759.245,51.3121 677.5,56C 555.557,65.2317 440.557,98.2317 332.5,155C 282.375,181.785 240.208,217.952 206,263.5C 167.156,321.679 143.489,385.679 135,455.5C 127.994,510.519 127.994,565.519 135,620.5C 140.17,649.179 147.837,677.179 158,704.5C 169.123,750.314 172.123,796.647 167,843.5C 162.195,866.438 153.528,887.771 141,907.5C 129.304,924.885 116.638,941.552 103,957.5C 88.3847,977.783 73.3847,997.783 58,1017.5C 54.0263,1022.32 54.8596,1025.82 60.5,1028C 86.5,1028.33 112.5,1028.67 138.5,1029C 156.611,1032.12 170.778,1041.28 181,1056.5C 187.76,1066.78 190.927,1078.12 190.5,1090.5C 189.948,1115.99 181.781,1138.66 166,1158.5C 163.774,1163.69 164.107,1168.69 167,1173.5C 187.926,1193.15 189.926,1214.48 173,1237.5C 172.516,1239.91 172.85,1242.25 174,1244.5C 183.386,1252.66 191.719,1261.66 199,1271.5C 210.32,1290.03 213.986,1310.03 210,1331.5C 206.09,1352.45 202.59,1373.45 199.5,1394.5C 201.215,1416.12 212.215,1430.62 232.5,1438C 271.198,1448.46 310.531,1451.8 350.5,1448C 386.127,1444.62 421.461,1439.28 456.5,1432C 497.24,1420.32 538.573,1411.32 580.5,1405C 603.396,1402.73 624.73,1407.39 644.5,1419C 656.138,1428.11 663.305,1439.94 666,1454.5C 676.829,1500.78 675.829,1546.78 663,1592.5C 655.242,1615.02 644.575,1636.02 631,1655.5C 619.046,1671.06 606.379,1686.06 593,1700.5C 575.633,1717.2 558.133,1734.03 540.5,1751C 523.637,1764.97 506.97,1778.3 490.5,1791C 585.119,1814.33 680.952,1827.16 778,1829.5C 955.365,1835.78 1128.53,1811.61 1297.5,1757C 1316.21,1749.57 1335.21,1742.9 1354.5,1737C 1357.88,1735.97 1359.04,1733.8 1358,1730.5C 1318.99,1698.83 1285.65,1662.16 1258,1620.5C 1157.29,1464.73 1107.63,1293.73 1109,1107.5C 1110.83,1097.28 1116.67,1090.78 1126.5,1088C 1133.17,1087.33 1139.83,1087.33 1146.5,1088C 1155.33,1090.17 1160.83,1095.67 1163,1104.5C 1164.13,1155.39 1168.13,1206.05 1175,1256.5C 1188.91,1324.48 1208.24,1390.81 1233,1455.5C 1258.78,1518.09 1292.44,1575.76 1334,1628.5C 1354.61,1652.78 1377.44,1674.61 1402.5,1694C 1414.84,1701.84 1427.51,1709.17 1440.5,1716C 1445.53,1719.95 1449.2,1724.78 1451.5,1730.5C 1451.5,1736.17 1451.5,1741.83 1451.5,1747.5C 1448.83,1752.68 1445.17,1757.18 1440.5,1761C 1431.88,1766.1 1422.88,1770.43 1413.5,1774C 1281.68,1827.12 1145.01,1861.46 1003.5,1877C 971.451,1881.06 939.451,1883.89 907.5,1885.5C 852.5,1885.5 797.5,1885.5 742.5,1885.5C 678.972,1880.45 615.639,1872.62 552.5,1862C 513.378,1854.18 474.378,1845.84 435.5,1837C 421.472,1833.32 407.805,1828.66 394.5,1823C 382.601,1811.88 380.434,1799.05 388,1784.5C 389.833,1782.67 391.667,1780.83 393.5,1779C 437.207,1759.83 476.54,1734.16 511.5,1702C 534.427,1680.08 556.261,1657.24 577,1633.5C 615.153,1584.63 626.487,1529.96 611,1469.5C 609.371,1465.77 606.538,1463.6 602.5,1463C 584.96,1460.41 567.626,1461.41 550.5,1466C 490.755,1484.52 429.755,1496.85 367.5,1503C 332.166,1506.31 296.833,1506.31 261.5,1503C 235.566,1501.13 211.566,1493.47 189.5,1480C 150.738,1451.42 136.572,1413.25 147,1365.5C 148.811,1349.44 151.644,1333.6 155.5,1318C 154.937,1310.98 152.771,1304.48 149,1298.5C 141.247,1291.08 133.913,1283.42 127,1275.5C 120.676,1265.03 117.509,1253.7 117.5,1241.5C 118.366,1230.74 119.533,1220.07 121,1209.5C 119.941,1206.38 118.608,1203.38 117,1200.5C 110.748,1193.43 107.415,1185.09 107,1175.5C 106.083,1161.58 108.416,1148.25 114,1135.5C 120.918,1124.67 127.585,1113.67 134,1102.5C 137.404,1094.62 135.57,1088.46 128.5,1084C 107.542,1085.38 86.5417,1085.71 65.5,1085C 31.6122,1083.24 9.61216,1066.4 -0.5,1034.5C -0.5,1026.5 -0.5,1018.5 -0.5,1010.5C 2.19473,1001.77 6.02806,993.436 11,985.5C 42.2559,947.916 71.5892,908.916 99,868.5C 107.557,855.828 111.89,841.828 112,826.5C 115.001,786.508 111.335,747.175 101,708.5C 76.2565,640.959 66.9232,571.292 73,499.5C 76.444,454.836 83.7773,410.836 95,367.5C 125.479,259.401 188.646,176.568 284.5,119C 407.914,48.4782 540.58,8.64486 682.5,-0.5 Z M 591.5,460.5 C 626.825,459.221 658.159,470.055 685.5,493C 699.045,504.545 711.212,517.378 722,531.5C 729.377,542.42 736.877,553.254 744.5,564C 748.067,565.075 751.067,564.242 753.5,561.5C 770.049,523.117 797.049,494.617 834.5,476C 874.021,462.784 912.354,465.784 949.5,485C 992.602,511.053 1009.1,548.886 999,598.5C 988.551,636.408 970.551,670.075 945,699.5C 917.015,730.822 886.515,759.322 853.5,785C 808.708,818.231 763.041,850.231 716.5,881C 711.581,881.714 707.247,880.381 703.5,877C 658.202,838.038 616.702,795.538 579,749.5C 554.558,718.307 533.891,684.641 517,648.5C 505.345,623.393 498.178,597.06 495.5,569.5C 495.936,538.661 506.436,511.994 527,489.5C 545.421,472.871 566.921,463.204 591.5,460.5 Z M 785.5,903.5 C 796.25,903.554 805.75,906.887 814,913.5C 817.282,919.558 816.449,925.058 811.5,930C 808.661,931.92 805.661,933.587 802.5,935C 767.05,946.927 731.384,958.261 695.5,969C 677.684,967.881 660.35,964.215 643.5,958C 630.601,952.433 620.935,943.433 614.5,931C 623.349,918.335 635.349,910.169 650.5,906.5C 653.691,907.175 656.691,908.342 659.5,910C 670.607,920.389 682.941,929.056 696.5,936C 712.404,941.424 727.404,939.424 741.5,930C 753.441,922.391 765.108,914.391 776.5,906C 779.628,905.159 782.628,904.325 785.5,903.5 Z M 805.5,993.5 C 801.743,1008.43 792.743,1018.93 778.5,1025C 753.183,1031.33 727.849,1037.66 702.5,1044C 684.726,1046.33 667.06,1045.66 649.5,1042C 640.891,1039.74 632.225,1037.74 623.5,1036C 618.162,1033.99 614.996,1030.16 614,1024.5C 613.149,1018.75 613.483,1013.08 615,1007.5C 631.466,1013.49 648.3,1018.33 665.5,1022C 682.551,1024.2 699.551,1023.87 716.5,1021C 746.325,1012.29 775.992,1003.13 805.5,993.5 Z"/></g>
<g><path style="opacity:0.961" fill="#fefffe" d="M 503.5,301.5 C 512.259,300.698 519.926,303.198 526.5,309C 545.842,323.181 558.009,342.014 563,365.5C 563.9,385.262 554.4,394.095 534.5,392C 530.208,390.604 526.708,388.104 524,384.5C 520.885,379.156 518.552,373.489 517,367.5C 515.066,363.241 512.732,359.241 510,355.5C 502.946,348.446 495.946,341.446 489,334.5C 483.493,323.986 485.326,314.819 494.5,307C 497.596,305.128 500.596,303.295 503.5,301.5 Z"/></g>
<g><path style="opacity:0.964" fill="#fefffe" d="M 416.5,323.5 C 420.846,323.334 425.179,323.501 429.5,324C 455.605,335.098 478.105,351.265 497,372.5C 505.674,381.879 507.674,392.546 503,404.5C 494.724,416.072 484.224,418.572 471.5,412C 458.702,397.532 444.369,384.865 428.5,374C 420.397,370.2 412.564,366.034 405,361.5C 400.144,354.047 399.144,346.047 402,337.5C 404.774,330.557 409.607,325.89 416.5,323.5 Z"/></g>
<g><path style="opacity:0.96" fill="#fefffe" d="M 1008.5,332.5 C 1030.41,330.582 1039.91,340.582 1037,362.5C 1035.6,368.9 1031.77,373.066 1025.5,375C 1005,378.082 987.337,386.749 972.5,401C 965.609,403.514 959.275,402.514 953.5,398C 947.199,392.876 943.199,386.376 941.5,378.5C 942.234,373.699 944.067,369.366 947,365.5C 963.547,346.979 984.047,335.979 1008.5,332.5 Z"/></g>
<g><path style="opacity:0.957" fill="#fefffe" d="M 1068.5,381.5 C 1077.56,381.371 1086.56,382.037 1095.5,383.5C 1106.1,380.895 1115.77,382.728 1124.5,389C 1129.02,393.38 1131.02,398.713 1130.5,405C 1131.48,417.332 1126.15,425.332 1114.5,429C 1103.48,429.741 1092.48,429.574 1081.5,428.5C 1076.51,429.09 1071.51,429.59 1066.5,430C 1055.31,432.842 1044.15,435.675 1033,438.5C 1014.94,435.759 1007.94,425.426 1012,407.5C 1013.4,403.208 1015.9,399.708 1019.5,397C 1035.17,389.503 1051.51,384.336 1068.5,381.5 Z"/></g>
<g><path style="opacity:0.962" fill="#fefffe" d="M 1036.5,736.5 C 1048.03,735.953 1058.7,738.787 1068.5,745C 1086.76,755.589 1099.59,770.755 1107,790.5C 1108.38,806.959 1100.88,816.625 1084.5,819.5C 1079.2,819.264 1074.7,817.264 1071,813.5C 1060.63,796.459 1046.46,783.626 1028.5,775C 1020.59,768.429 1018.42,760.262 1022,750.5C 1025.3,744.127 1030.13,739.46 1036.5,736.5 Z"/></g>
<g><path style="opacity:0.963" fill="#fefffe" d="M 445.5,747.5 C 462.803,745.974 472.47,753.807 474.5,771C 473.814,780.023 469.48,786.689 461.5,791C 453.248,793.524 445.581,797.191 438.5,802C 432.134,808.031 426.134,814.364 420.5,821C 406.927,829.15 395.427,826.65 386,813.5C 380.964,804.772 381.63,796.438 388,788.5C 403.221,769.084 422.388,755.418 445.5,747.5 Z"/></g>
<g><path style="opacity:0.961" fill="#fefffe" d="M 1007.5,786.5 C 1014.52,786.507 1020.52,789.007 1025.5,794C 1048.82,815.021 1064.32,840.855 1072,871.5C 1073.16,888.13 1065.33,896.797 1048.5,897.5C 1039.7,896.526 1033.2,892.193 1029,884.5C 1021.7,860.215 1009.03,839.215 991,821.5C 984.581,804.335 990.081,792.668 1007.5,786.5 Z"/></g>
<g><path style="opacity:0.964" fill="#fefffe" d="M 494.5,799.5 C 508.098,797.712 517.598,803.045 523,815.5C 523.839,820.921 523.506,826.254 522,831.5C 511.323,841.511 501.323,852.178 492,863.5C 484.452,873.259 478.452,883.926 474,895.5C 470.301,902.183 464.634,905.183 457,904.5C 443.16,904.983 434.994,898.483 432.5,885C 437.043,864.414 446.209,846.247 460,830.5C 470.476,818.848 481.976,808.515 494.5,799.5 Z"/></g>
</svg>
